<svg width="16" height="20" viewBox="0 0 16 20" fill="none" xmlns="http://www.w3.org/2000/svg">
<rect x="0.5" y="4.92969" width="15" height="13.8571" stroke="#0F303F"/>
<path d="M11.4284 4.42857C11.4284 3.51926 11.0672 2.64719 10.4242 2.00421C9.78124 1.36122 8.90917 1 7.99986 1C7.09055 1 6.21848 1.36122 5.57549 2.0042C4.93251 2.64719 4.57129 3.51926 4.57129 4.42857" stroke="#0F303F"/>
<path d="M9.5 12C9.5 12.7435 9.29819 13.394 8.99819 13.844C8.69585 14.2975 8.33309 14.5 8 14.5C7.66691 14.5 7.30415 14.2975 7.00181 13.844C6.70181 13.394 6.5 12.7435 6.5 12C6.5 11.2565 6.70181 10.606 7.00181 10.156C7.30415 9.70253 7.66691 9.5 8 9.5C8.33309 9.5 8.69585 9.70253 8.99819 10.156C9.29819 10.606 9.5 11.2565 9.5 12Z" stroke="#254A5A"/>
</svg>
