<!DOCTYPE svg PUBLIC "-//W3C//DTD SVG 1.1//EN" "http://www.w3.org/Graphics/SVG/1.1/DTD/svg11.dtd">

<!-- Uploaded to: SVG Repo, www.svgrepo.com, Transformed by: SVG Repo Mixer Tools -->
<svg width="64px" height="64px" viewBox="0 0 24 24" fill="none" xmlns="http://www.w3.org/2000/svg" stroke="#0F303F">

<g stroke-width="0"/>

<g stroke-linecap="round" stroke-linejoin="round"/>

<g> <path d="M20.3873 7.1575L11.9999 12L3.60913 7.14978" stroke="#0F303F" stroke-width="2" stroke-linecap="round" stroke-linejoin="round"/> <path d="M12 12V21" stroke="#0F303F" stroke-width="2" stroke-linecap="round" stroke-linejoin="round"/> <path d="M11 2.57735C11.6188 2.22008 12.3812 2.22008 13 2.57735L19.6603 6.42265C20.2791 6.77992 20.6603 7.44017 20.6603 8.1547V15.8453C20.6603 16.5598 20.2791 17.2201 19.6603 17.5774L13 21.4226C12.3812 21.7799 11.6188 21.7799 11 21.4226L4.33975 17.5774C3.72094 17.2201 3.33975 16.5598 3.33975 15.8453V8.1547C3.33975 7.44017 3.72094 6.77992 4.33975 6.42265L11 2.57735Z" stroke="#0F303F" stroke-width="2" stroke-linecap="round" stroke-linejoin="round"/> <path d="M8.5 4.5L16 9" stroke="#0F303F" stroke-width="2" stroke-linecap="round" stroke-linejoin="round"/> </g>

</svg>
