<svg width="1440" height="14" viewBox="0 0 1440 14" fill="none" xmlns="http://www.w3.org/2000/svg">
<rect x="-3" y="8" width="640" height="1" fill="#EAE9E8"/>
<rect x="805" y="8" width="635" height="1" fill="#EAE9E8"/>
<g clip-path="url(#clip0_8964_4)">
<path d="M672.288 13.8115L671.387 11.397H665.446L664.479 13.8115H663L668.556 0L673.789 13.8115H672.288ZM668.491 3.46355L665.853 10.2626H670.958L668.491 3.46355Z" fill="#EAE9E8"/>
<path d="M681.446 13.8116V0.483643H682.882V12.6345H687.108V13.8116H681.446Z" fill="#EAE9E8"/>
<path d="M695.019 13.8116V0.483643H696.454V12.6345H700.68V13.8116H695.019Z" fill="#EAE9E8"/>
<path d="M708.595 13.8116V0.483643H715.328V1.72113H710.03V4.88954H713.635V6.08435H710.03V12.6523H715.565V13.808H708.595V13.8116Z" fill="#EAE9E8"/>
<path d="M730.279 13.9999C726.442 13.9785 723.008 11.9018 723.008 7.4497C723.008 3.2714 726.355 0.273682 730.792 0.273682C731.028 0.273682 731.264 0.273682 731.5 0.295018V1.53251C731.242 1.51117 730.984 1.48984 730.73 1.48984C727.256 1.51117 724.403 3.63055 724.403 7.4497C724.403 11.2262 727.47 12.8442 730.236 12.8442C730.428 12.8442 730.621 12.8442 730.814 12.8228V5.49746H727.874V4.40576H732.162V13.8292C731.544 13.9359 730.901 13.9999 730.279 13.9999Z" fill="#EAE9E8"/>
<path d="M747.417 10.6005L749.583 13.8116H747.995L746.214 11.1054C745.636 11.3366 744.797 11.525 743.939 11.525C743.511 11.525 743.038 11.4824 742.631 11.4006V13.8151H741.214V0.483643H743.743C748.184 0.483643 749.921 3.04397 749.921 6.19103C749.924 7.76634 749.325 9.42344 747.417 10.6005ZM744.027 1.63579H742.631V10.1987C743.104 10.3445 743.489 10.4085 744.005 10.4085C744.543 10.4085 745.186 10.3231 745.571 10.1346L744.35 8.34953L745.444 7.67744L746.73 9.58702C747.802 8.95761 748.594 7.80191 748.594 6.35461C748.594 2.95862 746.323 1.63579 744.027 1.63579Z" fill="#EAE9E8"/>
<path d="M758.289 13.8116V0.483643H759.706V13.8116H758.289V13.8116Z" fill="#EAE9E8"/>
<path d="M776.499 13.8115L775.598 11.397H769.657L768.69 13.8115H767.211L772.767 0L778 13.8115H776.499ZM772.702 3.46355L770.064 10.2626H775.169L772.702 3.46355Z" fill="#EAE9E8"/>
</g>
<defs>
<clipPath id="clip0_8964_4">
<rect width="115" height="14" fill="white" transform="translate(663)"/>
</clipPath>
</defs>
</svg>
