<svg width="16" height="18" viewBox="0 0 16 18" fill="none" xmlns="http://www.w3.org/2000/svg">
<path fill-rule="evenodd" clip-rule="evenodd" d="M14.9282 17C14.8452 16.4247 14.6906 15.8607 14.4672 15.3212C14.1154 14.4719 13.5998 13.7003 12.9497 13.0503C12.2997 12.4002 11.5281 11.8846 10.6788 11.5328C9.8295 11.1811 8.91925 11 8 11C7.08075 11 6.17049 11.1811 5.32122 11.5328C4.47194 11.8846 3.70026 12.4002 3.05025 13.0503C2.40024 13.7003 1.88463 14.4719 1.53284 15.3212C1.3094 15.8607 1.15484 16.4247 1.0718 17L14.9282 17ZM15.9373 17C15.8482 16.293 15.6649 15.5996 15.391 14.9385C14.989 13.9679 14.3997 13.086 13.6569 12.3431C12.914 11.6003 12.0321 11.011 11.0615 10.609C10.0909 10.2069 9.05057 10 8 10C6.94942 10 5.90914 10.2069 4.93853 10.609C3.96793 11.011 3.08601 11.6003 2.34315 12.3431C1.60028 13.086 1.011 13.9679 0.608963 14.9385C0.335133 15.5996 0.151816 16.293 0.0627457 17C0.0210429 17.331 0 17.665 0 18L16 18C16 17.665 15.979 17.331 15.9373 17Z" fill="#0F303F"/>
<path fill-rule="evenodd" clip-rule="evenodd" d="M8 7C9.65685 7 11 5.65685 11 4C11 2.34315 9.65685 1 8 1C6.34315 1 5 2.34315 5 4C5 5.65685 6.34315 7 8 7ZM8 8C10.2091 8 12 6.20914 12 4C12 1.79086 10.2091 0 8 0C5.79086 0 4 1.79086 4 4C4 6.20914 5.79086 8 8 8Z" fill="#0F303F"/>
</svg>
