<svg width="45" height="45" viewBox="0 0 45 45" fill="none" xmlns="http://www.w3.org/2000/svg">
<circle cx="22.5" cy="22.5" r="22.5" fill="#E64926"/>
<path d="M11.0155 23.816H6.78752V22.444L10.7355 16.088H12.3595V22.64H13.7595V23.816H12.3595V26H11.0155V23.816ZM11.0155 17.684H10.9875L7.96352 22.64H11.0155V17.684ZM14.5668 21.044C14.5668 20.68 14.5855 20.302 14.6228 19.91C14.6602 19.518 14.7255 19.1353 14.8188 18.762C14.9215 18.3793 15.0522 18.0153 15.2108 17.67C15.3788 17.3247 15.5888 17.026 15.8408 16.774C16.1022 16.5127 16.4055 16.3073 16.7508 16.158C17.1055 15.9993 17.5162 15.92 17.9828 15.92C18.4495 15.92 18.8555 15.9993 19.2008 16.158C19.5555 16.3073 19.8588 16.5127 20.1108 16.774C20.3722 17.026 20.5822 17.3247 20.7408 17.67C20.9088 18.0153 21.0395 18.3793 21.1328 18.762C21.2355 19.1353 21.3055 19.518 21.3428 19.91C21.3802 20.302 21.3988 20.68 21.3988 21.044C21.3988 21.5667 21.3522 22.1267 21.2588 22.724C21.1655 23.3213 20.9928 23.8767 20.7408 24.39C20.4888 24.9033 20.1388 25.328 19.6908 25.664C19.2522 26 18.6828 26.168 17.9828 26.168C17.2828 26.168 16.7088 26 16.2608 25.664C15.8222 25.328 15.4768 24.9033 15.2248 24.39C14.9728 23.8767 14.8002 23.3213 14.7068 22.724C14.6135 22.1267 14.5668 21.5667 14.5668 21.044ZM15.9108 21.044C15.9108 21.3707 15.9295 21.758 15.9668 22.206C16.0135 22.654 16.1068 23.088 16.2468 23.508C16.3868 23.9187 16.5922 24.2687 16.8628 24.558C17.1428 24.8473 17.5162 24.992 17.9828 24.992C18.4495 24.992 18.8182 24.8473 19.0888 24.558C19.3688 24.2687 19.5788 23.9187 19.7188 23.508C19.8588 23.088 19.9475 22.654 19.9848 22.206C20.0315 21.758 20.0548 21.3707 20.0548 21.044C20.0548 20.82 20.0455 20.568 20.0268 20.288C20.0175 19.9987 19.9848 19.7093 19.9288 19.42C19.8822 19.1213 19.8122 18.8367 19.7188 18.566C19.6255 18.286 19.4995 18.0387 19.3408 17.824C19.1915 17.6 19.0048 17.4227 18.7808 17.292C18.5568 17.1613 18.2908 17.096 17.9828 17.096C17.6748 17.096 17.4088 17.1613 17.1848 17.292C16.9608 17.4227 16.7695 17.6 16.6108 17.824C16.4615 18.0387 16.3402 18.286 16.2468 18.566C16.1535 18.8367 16.0788 19.1213 16.0228 19.42C15.9762 19.7093 15.9435 19.9987 15.9248 20.288C15.9155 20.568 15.9108 20.82 15.9108 21.044ZM29.0566 26.434L28.2166 26L34.4466 15.64L35.2866 16.074L29.0566 26.434ZM26.2846 18.314C26.2846 17.9687 26.3499 17.6467 26.4806 17.348C26.6113 17.0493 26.7886 16.788 27.0126 16.564C27.2366 16.34 27.4979 16.1627 27.7966 16.032C28.0953 15.9013 28.4173 15.836 28.7626 15.836C29.1079 15.836 29.4299 15.9013 29.7286 16.032C30.0273 16.1627 30.2886 16.34 30.5126 16.564C30.7366 16.788 30.9139 17.0493 31.0446 17.348C31.1753 17.6467 31.2406 17.9687 31.2406 18.314C31.2406 18.6593 31.1753 18.9813 31.0446 19.28C30.9139 19.5787 30.7366 19.84 30.5126 20.064C30.2886 20.288 30.0273 20.4653 29.7286 20.596C29.4299 20.7267 29.1079 20.792 28.7626 20.792C28.4173 20.792 28.0953 20.7267 27.7966 20.596C27.4979 20.4653 27.2366 20.288 27.0126 20.064C26.7886 19.84 26.6113 19.5787 26.4806 19.28C26.3499 18.9813 26.2846 18.6593 26.2846 18.314ZM27.3766 18.314C27.3766 18.706 27.5073 19.0373 27.7686 19.308C28.0393 19.5693 28.3706 19.7 28.7626 19.7C29.1546 19.7 29.4813 19.5693 29.7426 19.308C30.0133 19.0373 30.1486 18.706 30.1486 18.314C30.1486 17.922 30.0133 17.5953 29.7426 17.334C29.4813 17.0633 29.1546 16.928 28.7626 16.928C28.3706 16.928 28.0393 17.0633 27.7686 17.334C27.5073 17.5953 27.3766 17.922 27.3766 18.314ZM32.2206 23.774C32.2206 23.4287 32.2859 23.1067 32.4166 22.808C32.5473 22.5093 32.7246 22.248 32.9486 22.024C33.1726 21.8 33.4339 21.6227 33.7326 21.492C34.0313 21.3613 34.3533 21.296 34.6986 21.296C35.0439 21.296 35.3659 21.3613 35.6646 21.492C35.9633 21.6227 36.2246 21.8 36.4486 22.024C36.6726 22.248 36.8499 22.5093 36.9806 22.808C37.1113 23.1067 37.1766 23.4287 37.1766 23.774C37.1766 24.1193 37.1113 24.4413 36.9806 24.74C36.8499 25.0387 36.6726 25.3 36.4486 25.524C36.2246 25.748 35.9633 25.9253 35.6646 26.056C35.3659 26.1867 35.0439 26.252 34.6986 26.252C34.3533 26.252 34.0313 26.1867 33.7326 26.056C33.4339 25.9253 33.1726 25.748 32.9486 25.524C32.7246 25.3 32.5473 25.0387 32.4166 24.74C32.2859 24.4413 32.2206 24.1193 32.2206 23.774ZM33.3126 23.774C33.3126 24.166 33.4433 24.4973 33.7046 24.768C33.9753 25.0293 34.3066 25.16 34.6986 25.16C35.0906 25.16 35.4173 25.0293 35.6786 24.768C35.9493 24.4973 36.0846 24.166 36.0846 23.774C36.0846 23.382 35.9493 23.0553 35.6786 22.794C35.4173 22.5233 35.0906 22.388 34.6986 22.388C34.3066 22.388 33.9753 22.5233 33.7046 22.794C33.4433 23.0553 33.3126 23.382 33.3126 23.774Z" fill="white"/>
</svg>
