<svg width="17" height="21" viewBox="0 0 17 21" fill="none" xmlns="http://www.w3.org/2000/svg">
<mask id="path-1-inside-1_94_4166" fill="white">
<path fill-rule="evenodd" clip-rule="evenodd" d="M15.1782 12.0312C15.9139 11.0293 16.275 9.80444 16.275 8.1375C16.275 3.64328 12.6317 0 8.1375 0C3.64328 0 0 3.64328 0 8.1375C0 9.72324 0.392161 10.9852 1.11883 12.0312H1.09071L7.78805 21L14.8662 12.4181C14.9498 12.3233 15.0296 12.2266 15.1057 12.1278L15.1853 12.0312H15.1782Z"/>
</mask>
<path d="M15.1782 12.0312L14.3722 11.4394L13.2034 13.0312H15.1782V12.0312ZM1.11883 12.0312V13.0312H3.03108L1.94012 11.4607L1.11883 12.0312ZM1.09071 12.0312V11.0312H-0.904077L0.28946 12.6296L1.09071 12.0312ZM7.78805 21L6.9868 21.5983L7.74898 22.619L8.55951 21.6363L7.78805 21ZM14.8662 12.4181L14.1162 11.7566L14.1053 11.7691L14.0947 11.7818L14.8662 12.4181ZM15.1057 12.1278L14.3342 11.4915L14.3234 11.5046L14.3131 11.518L15.1057 12.1278ZM15.1853 12.0312L15.9567 12.6675L17.3063 11.0312H15.1853V12.0312ZM15.275 8.1375C15.275 9.64981 14.9512 10.6507 14.3722 11.4394L15.9843 12.6231C16.8765 11.4079 17.275 9.95908 17.275 8.1375H15.275ZM8.1375 1C12.0794 1 15.275 4.19557 15.275 8.1375H17.275C17.275 3.091 13.184 -1 8.1375 -1V1ZM1 8.1375C1 4.19557 4.19557 1 8.1375 1V-1C3.091 -1 -1 3.091 -1 8.1375H1ZM1.94012 11.4607C1.3441 10.6027 1 9.54586 1 8.1375H-1C-1 9.90061 -0.559774 11.3676 0.297539 12.6018L1.94012 11.4607ZM1.11883 11.0312H1.09071V13.0312H1.11883V11.0312ZM0.28946 12.6296L6.9868 21.5983L8.5893 20.4017L1.89196 11.4329L0.28946 12.6296ZM8.55951 21.6363L15.6377 13.0544L14.0947 11.7818L7.01659 20.3637L8.55951 21.6363ZM14.3131 11.518C14.251 11.5987 14.1855 11.6781 14.1162 11.7566L15.6161 13.0796C15.7141 12.9686 15.8082 12.8546 15.8983 12.7375L14.3131 11.518ZM15.8771 12.764L15.9567 12.6675L14.4138 11.395L14.3342 11.4915L15.8771 12.764ZM15.1853 11.0312H15.1782V13.0312H15.1853V11.0312Z" fill="#0F303F" mask="url(#path-1-inside-1_94_4166)"/>
<circle cx="8" cy="8" r="4.5" stroke="#0F303F"/>
</svg>
