<!DOCTYPE svg PUBLIC "-//W3C//DTD SVG 1.1//EN" "http://www.w3.org/Graphics/SVG/1.1/DTD/svg11.dtd">
<!-- Uploaded to: SVG Repo, www.svgrepo.com, Transformed by: SVG Repo Mixer Tools -->
<svg version="1.1" id="Uploaded to svgrepo.com" xmlns="http://www.w3.org/2000/svg" xmlns:xlink="http://www.w3.org/1999/xlink" width="64px" height="64px" viewBox="0 0 32 32" xml:space="preserve" fill="#000000" transform="rotate(0)">
<g id="SVGRepo_bgCarrier" stroke-width="0"/>
<g id="SVGRepo_tracerCarrier" stroke-linecap="round" stroke-linejoin="round"/>
<g id="SVGRepo_iconCarrier"> <style type="text/css"> .bentblocks_een{fill:#0F303F;} </style> <path class="bentblocks_een" d="M8,9.142V4H6v5.142c-1.72,0.447-3,2-3,3.858c0,1.858,1.28,3.411,3,3.858v10.096h2V16.858 c1.72-0.447,3-2,3-3.858C11,11.142,9.72,9.589,8,9.142z M7,15c-1.105,0-2-0.895-2-2c0-1.105,0.895-2,2-2s2,0.895,2,2 C9,14.105,8.105,15,7,15z M17,16.142V10V4h-2v6v6.142c-1.72,0.447-3,2-3,3.858c0,1.858,1.28,3.411,3,3.858v3.096h2v-3.096 c1.72-0.447,3-2,3-3.858C20,18.142,18.72,16.589,17,16.142z M16,22c-1.105,0-2-0.895-2-2c0-1.105,0.895-2,2-2s2,0.895,2,2 C18,21.105,17.105,22,16,22z M29,16c0-1.858-1.28-3.411-3-3.858V4h-2v8.142c-1.72,0.447-3,2-3,3.858c0,1.858,1.28,3.411,3,3.858 v7.096h2v-7.096C27.72,19.411,29,17.858,29,16z M25,18c-1.105,0-2-0.895-2-2c0-1.105,0.895-2,2-2s2,0.895,2,2 C27,17.105,26.105,18,25,18z"/> </g>
</svg>